<?xml version="1.0" encoding="iso-8859-1"?>
<!-- Generator: Adobe Illustrator 19.0.0, SVG Export Plug-In . SVG Version: 6.00 Build 0)  -->
<svg version="1.1" id="Layer_1" xmlns="http://www.w3.org/2000/svg" xmlns:xlink="http://www.w3.org/1999/xlink" x="0px" y="0px"
	 viewBox="0 0 512 512" style="enable-background:new 0 0 512 512;" xml:space="preserve">
<path style="fill:#D43020;" d="M504.082,39.588v432.825c0,17.524-14.146,31.67-31.67,31.67H39.588
	c-17.524,0-31.67-14.146-31.67-31.67V39.588c0-17.524,14.146-31.67,31.67-31.67h432.825
	C489.937,7.918,504.082,22.064,504.082,39.588z"/>
<path style="fill:#F23222;" d="M63.932,7.918H39.588c-17.524,0-31.67,14.146-31.67,31.67v432.825c0,17.524,14.146,31.67,31.67,31.67
	h432.825c17.524,0,31.67-14.146,31.67-31.67v-28.682C280.266,406.241,103.592,230.986,63.932,7.918z"/>
<g>
	<polygon style="fill:#FFFFFF;" points="58.062,87.093 42.227,87.093 42.227,42.227 87.093,42.227 87.093,58.062 58.062,58.062 	"/>
	<polygon style="fill:#FFFFFF;" points="469.773,87.093 453.938,87.093 453.938,58.062 424.907,58.062 424.907,42.227 
		469.773,42.227 	"/>
	<polygon style="fill:#FFFFFF;" points="87.093,469.773 42.227,469.773 42.227,424.907 58.062,424.907 58.062,453.938 
		87.093,453.938 	"/>
	<polygon style="fill:#FFFFFF;" points="469.773,469.773 424.907,469.773 424.907,453.938 453.938,453.938 453.938,424.907 
		469.773,424.907 	"/>
</g>
<path style="fill:#31C0D8;" d="M403.794,408.316c0,0,0,8.556,0,19.447H256H108.206c0-10.89,0-19.447,0-19.447
	s0.388-24.035,31.66-45.894c9.568-6.767,22.091-13.301,38.348-18.902c1.245-0.467,2.567-0.933,3.889-1.323
	c0,0,6.3-3.267,13.768-7.778c7.778-4.667,16.88-10.734,21.236-15.557c0,0,16.024,19.446,38.893,19.446s38.893-19.446,38.893-19.446
	c4.512,4.979,14.001,11.202,21.936,16.024c7.156,4.279,13.068,7.312,13.068,7.312c1.323,0.388,2.644,0.856,3.889,1.323
	c16.335,5.523,28.859,12.057,38.426,18.747C403.639,384.125,403.794,408.316,403.794,408.316z"/>
<path style="fill:#FFD7A3;" d="M217.107,318.862v-24.736c11.357,5.912,24.425,9.179,38.893,9.179s27.536-3.267,38.893-9.179v24.736
	c0,0-16.024,19.446-38.893,19.446S217.107,318.862,217.107,318.862z"/>
<path style="fill:#FFE1B2;" d="M217.107,294.127c-29.092-15.013-46.671-47.061-46.671-84.164V167.18c0,0,81.675-3.889,81.675-27.226
	c0,0,38.426,27.226,89.454,27.226v42.782c0,37.104-17.58,69.152-46.672,84.164c-11.357,5.912-24.425,9.179-38.893,9.179
	C241.532,303.305,228.464,300.038,217.107,294.127z"/>
<path style="fill:#8C6239;" d="M372.679,148.199c0,93.343,0,213.368,0,213.368l-0.467,0.7c-9.568-6.69-22.091-13.223-38.426-18.747
	c-1.245-0.467-2.567-0.933-3.889-1.323c0,0-5.912-3.034-13.068-7.312c-7.934-4.822-17.424-11.045-21.936-16.024v-24.736
	c29.092-15.013,46.672-47.061,46.672-84.164v-42.782c-51.028,0-89.454-27.226-89.454-27.226c0,23.336-81.675,27.226-81.675,27.226
	v42.782c0,37.104,17.58,69.152,46.671,84.164v24.736c-4.356,4.822-13.457,10.89-21.236,15.557
	c-7.468,4.512-13.768,7.778-13.768,7.778c-1.323,0.388-2.644,0.856-3.889,1.323c-16.257,5.6-28.781,12.135-38.348,18.902
	l-0.545-0.855c0,0,0-120.491,0-213.834S256,66.524,256,66.524S372.679,54.856,372.679,148.199z"/>
<path style="fill:#00B4D7;" d="M217.107,318.835c-4.356,4.822-13.457,10.89-21.236,15.557c-7.468,4.512-13.768,7.778-13.768,7.778
	c-1.323,0.389-2.644,0.855-3.889,1.323c-16.257,5.6-28.781,12.135-38.348,18.902c-31.27,21.858-31.66,45.894-31.66,45.894
	s0,8.556,0,19.446H256v-89.454C233.131,338.281,217.107,318.835,217.107,318.835z"/>
<path style="fill:#FFD7A3;" d="M217.107,294.099v24.735c0,0,16.024,19.447,38.893,19.447v-35.004
	C241.532,303.277,228.464,300.011,217.107,294.099z"/>
<path style="fill:#FFE1B2;" d="M256,142.443c-2.536-1.557-3.889-2.516-3.889-2.516c0,23.336-81.675,27.225-81.675,27.225v42.782
	c0,37.105,17.58,69.152,46.671,84.164c11.357,5.912,24.425,9.179,38.893,9.179V142.443L256,142.443z"/>
<path style="fill:#6C4C29;" d="M182.103,342.17c0,0,6.3-3.267,13.768-7.778c7.778-4.667,16.879-10.735,21.236-15.557v-24.735
	c-29.092-15.013-46.671-47.061-46.671-84.164v-42.782c0,0,81.675-3.889,81.675-27.225c0,0,1.354,0.959,3.889,2.516V66.496
	c0,0-116.679-12.135-116.679,81.208s0,213.834,0,213.834l0.545,0.855c9.568-6.767,22.091-13.301,38.348-18.902
	C179.459,343.026,180.78,342.56,182.103,342.17z"/>
<g>
	<path style="fill:#231F20;" d="M472.412,0H39.588C17.758,0,0,17.758,0,39.588v432.825C0,494.242,17.758,512,39.588,512h432.825
		C494.242,512,512,494.242,512,472.412V39.588C512,17.758,494.242,0,472.412,0z M496.165,472.412
		c0,13.097-10.656,23.753-23.753,23.753H39.588c-13.097,0-23.753-10.656-23.753-23.753V39.588c0-13.097,10.656-23.753,23.753-23.753
		h432.825c13.097,0,23.753,10.656,23.753,23.753V472.412z"/>
	<path style="fill:#231F20;" d="M380.597,358.588V148.199c0-26.271-8.61-47.385-25.592-62.752
		c-15.332-13.875-36.844-22.596-63.942-25.921c-17.52-2.149-31.576-1.238-35.047-0.951c-3.47-0.3-17.528-1.27-35.055,0.813
		c-27.109,3.22-48.628,11.86-63.966,25.686c-16.982,15.307-25.592,36.39-25.592,62.66v211.083
		c-30.313,23.153-31.096,48.273-31.114,49.373l-0.001,27.491h311.423v-27.415C411.704,407.155,411.16,381.79,380.597,358.588z
		 M167.556,96.873c30.906-27.91,88.429-22.39,88.429-22.39s57.367-5.375,88.394,22.705c13.524,12.239,20.383,29.403,20.383,51.011
		v200.175c-8.475-4.665-17.936-8.796-28.318-12.313c-1.313-0.491-2.461-0.888-3.542-1.225c-1.653-0.868-6.463-3.429-11.96-6.715
		c-9.847-5.986-15.206-9.982-18.131-12.579v-16.767c28.906-17.097,46.672-50.634,46.672-88.811v-50.7h-7.918
		c-47.738,0-84.52-25.518-84.877-25.769l-12.495-8.853v15.314c0,2.227-6.156,9.188-34.265,14.56
		c-19.642,3.755-39.671,4.747-39.872,4.758l-7.54,0.361v50.33c0,38.178,17.765,71.715,46.672,88.811v16.777
		c-3.635,3.236-9.764,7.504-17.412,12.094c-5.817,3.513-10.958,6.277-12.694,7.198c-1.082,0.338-2.232,0.736-3.548,1.228
		c-10.429,3.599-19.897,7.762-28.296,12.422V147.733C147.239,126.158,154.074,109.045,167.556,96.873z M291.237,287.104
		c-10.56,5.496-22.415,8.284-35.237,8.284c-12.822,0-24.677-2.788-35.237-8.284l-0.024-0.014
		c-26.145-13.491-42.385-43.045-42.385-77.129v-35.38c7.94-0.631,21.094-1.953,34.402-4.488
		c22.267-4.242,36.524-10.345,43.074-18.503c13.461,7.718,42.101,21.469,77.819,23.301v35.069
		C333.648,244.046,317.406,273.599,291.237,287.104z M225.025,306.135c9.69,3.375,20.06,5.087,30.975,5.087
		c10.919,0,21.292-1.713,30.975-5.086v9.616c-4.363,4.379-16.167,14.639-30.975,14.639c-14.818,0-26.627-10.274-30.975-14.637
		L225.025,306.135L225.025,306.135z M395.876,419.845H116.124v-11.424c0.042-0.815,1.512-20.799,28.313-39.534
		c9.796-6.928,22.028-12.944,36.356-17.881l4.954-1.78c0.267-0.138,6.618-3.438,14.197-8.018c5.227-3.136,11.66-7.259,16.876-11.412
		c7.41,6.623,21.383,16.43,39.179,16.43c17.802,0,31.779-9.811,39.185-16.436c4.335,3.444,10.153,7.377,17.58,11.892
		c7.293,4.36,13.266,7.431,13.517,7.56l4.968,1.779c14.212,4.805,26.467,10.772,36.442,17.747
		c26.875,18.693,28.13,38.335,28.184,39.652v11.424H395.876z"/>
	<polygon style="fill:#231F20;" points="263.918,225.442 248.082,225.442 248.082,256.772 271.556,256.772 271.556,240.937 
		263.918,240.937 	"/>
</g>
<rect x="248.072" y="360.3" style="fill:#FFFFFF;" width="15.835" height="47.505"/>
<g>
</g>
<g>
</g>
<g>
</g>
<g>
</g>
<g>
</g>
<g>
</g>
<g>
</g>
<g>
</g>
<g>
</g>
<g>
</g>
<g>
</g>
<g>
</g>
<g>
</g>
<g>
</g>
<g>
</g>
</svg>
